<?xml version="1.0" encoding="UTF-8" standalone="no"?>
<!-- Created with Inkscape (http://www.inkscape.org/) -->

<svg
   width="85.807251mm"
   height="96.846642mm"
   viewBox="0 0 85.807251 96.846642"
   version="1.1"
   id="svg1"
   inkscape:version="1.3.2 (091e20e, 2023-11-25, custom)"
   sodipodi:docname="logo.svg"
   xmlns:inkscape="http://www.inkscape.org/namespaces/inkscape"
   xmlns:sodipodi="http://sodipodi.sourceforge.net/DTD/sodipodi-0.dtd"
   xmlns="http://www.w3.org/2000/svg"
   xmlns:svg="http://www.w3.org/2000/svg">
  <sodipodi:namedview
     id="namedview1"
     pagecolor="#505050"
     bordercolor="#eeeeee"
     borderopacity="1"
     inkscape:showpageshadow="0"
     inkscape:pageopacity="0"
     inkscape:pagecheckerboard="0"
     inkscape:deskcolor="#d1d1d1"
     inkscape:document-units="mm"
     inkscape:zoom="1.0141844"
     inkscape:cx="114.37763"
     inkscape:cy="127.68881"
     inkscape:window-width="1920"
     inkscape:window-height="1001"
     inkscape:window-x="-9"
     inkscape:window-y="-9"
     inkscape:window-maximized="1"
     inkscape:current-layer="layer1" />
  <defs
     id="defs1" />
  <g
     inkscape:label="Layer 1"
     inkscape:groupmode="layer"
     id="layer1"
     transform="translate(-26.748272,-25.194487)">
    <path
       id="rect1"
       style="fill:#ffffff;stroke-width:2.34258;stroke-linejoin:round"
       d="m 27.137396,51.835595 c -0.231259,0.148483 -0.389124,0.368993 -0.389124,0.628903 V 62.569824 L 50.69048,96.426155 V 107.82339 L 26.748272,96.538293 v 6.758247 L 66.51587,122.04113 V 107.88644 L 27.245916,52.35546 c -0.11636,-0.164544 -0.139062,-0.346055 -0.10852,-0.519865 z" />
    <path
       id="path2"
       style="fill:#ffffff;stroke-width:1.93771;stroke-linejoin:round"
       d="m 35.492924,40.029598 c -0.450006,0 -0.812354,0.302941 -0.812354,0.680062 v 12.485026 l 32.061093,46.537728 c 0.095,0.137893 0.113297,0.289976 0.08837,0.435636 0.188806,-0.12443 0.31781,-0.309286 0.31781,-0.527104 V 40.70966 c 0,-0.377121 -0.362348,-0.680062 -0.812353,-0.680062 z m 15.421281,1.290877 a 10.514907,10.514907 0 0 1 10.51512,10.515121 10.514907,10.514907 0 0 1 -10.51512,10.51512 10.514907,10.514907 0 0 1 -10.515121,-10.51512 10.514907,10.514907 0 0 1 10.515121,-10.515121 z" />
    <path
       id="path6"
       style="fill:#ffffff;stroke-width:1.93771;stroke-linejoin:round"
       d="m 73.582072,40.029081 c -0.450005,0 -0.812354,0.303457 -0.812354,0.680579 v 58.931286 c 0,0.217817 0.129005,0.402674 0.31781,0.527104 -0.02493,-0.14566 -0.0066,-0.29774 0.08837,-0.435636 L 105.23699,53.194686 V 40.70966 c 0,-0.377122 -0.36236,-0.680579 -0.81236,-0.680579 z m 6.206339,3.266468 c 0.15124,0 0.302176,0.05826 0.418063,0.174149 l 7.134965,7.134448 7.134965,-7.134965 c 0.115887,-0.115888 0.266819,-0.173632 0.418062,-0.173632 0.151236,0 0.302692,0.05775 0.418579,0.173632 l 1.254187,1.254187 c 0.231775,0.231776 0.231775,0.604867 0,0.836642 l -7.134965,7.134965 7.134965,7.134965 c 0.231781,0.231778 0.231774,0.604865 0,0.836641 l -1.254187,1.254187 c -0.231774,0.231776 -0.60486,0.231777 -0.836641,0 l -7.134965,-7.134965 -7.134965,7.134965 c -0.231775,0.231776 -0.604867,0.231776 -0.836642,0 l -1.254187,-1.254187 c -0.231773,-0.231776 -0.231773,-0.604865 0,-0.836641 l 7.134965,-7.134965 -7.134965,-7.134448 c -0.231773,-0.231778 -0.231773,-0.605383 0,-0.837159 l 1.254187,-1.25367 c 0.115887,-0.115888 0.26734,-0.17415 0.418579,-0.174149 z" />
    <path
       id="path10"
       style="fill:#ffffff;stroke-width:2.34258;stroke-linejoin:round"
       d="m 112.16639,51.835593 c 0.23126,0.148483 0.38913,0.368993 0.38913,0.628903 V 62.569822 L 88.61331,96.426153 v 11.397237 l 23.94221,-11.285099 v 6.758249 l -39.7676,18.74459 v -14.15469 l 39.26995,-55.530982 c 0.11636,-0.164544 0.13907,-0.346055 0.10852,-0.519865 z" />
    <path
       id="path11"
       style="fill:#ffffff;fill-opacity:1;stroke-width:2.11667;stroke-linejoin:round"
       d="M 50.898188,25.194487 A 16.233637,16.233637 0 0 0 34.713129,40.747026 H 67.115285 A 16.233637,16.233637 0 0 0 50.898188,25.194487 Z" />
    <path
       id="path12"
       style="fill:#ffffff;fill-opacity:1;stroke-width:2.11667;stroke-linejoin:round"
       d="M 88.987335,25.194487 A 16.233637,16.233637 0 0 0 72.802276,40.747026 H 105.20443 A 16.233637,16.233637 0 0 0 88.987335,25.194487 Z" />
  </g>
</svg>
